<?xml version="1.0" encoding="UTF-8" standalone="no"?>
<!DOCTYPE svg PUBLIC "-//W3C//DTD SVG 1.1//EN"
 "http://www.w3.org/Graphics/SVG/1.1/DTD/svg11.dtd">
<!-- Generated by graphviz version 2.40.1 (20161225.0304)
 -->
<!-- Title: G Pages: 1 -->
<svg width="493pt" height="130pt"
 viewBox="0.00 0.00 492.50 130.00" xmlns="http://www.w3.org/2000/svg" xmlns:xlink="http://www.w3.org/1999/xlink">
<g id="graph0" class="graph" transform="scale(1 1) rotate(0) translate(4 126)">
<title>G</title>
<polygon fill="#ffffff" stroke="transparent" points="-4,4 -4,-126 488.5,-126 488.5,4 -4,4"/>
<!-- COUNTRY -->
<g id="node1" class="node">
<title>COUNTRY</title>
<text text-anchor="start" x="34.7563" y="-76.4" font-family="Bitstream-Vera Sans" font-size="7.00" fill="#000000">COUNTRY</text>
<polygon fill="none" stroke="#000000" points="9,-71 9,-73 95,-73 95,-71 9,-71"/>
<text text-anchor="start" x="10.9536" y="-63.4" font-family="Bitstream-Vera Sans" font-size="7.00" fill="#000000">&#45; generated_id : INTEGER</text>
<text text-anchor="start" x="11" y="-52.4" font-family="Bitstream-Vera Sans" font-size="7.00" fill="#000000">&#45; country_id : INTEGER</text>
<text text-anchor="start" x="11" y="-41.4" font-family="Bitstream-Vera Sans" font-size="7.00" fill="#000000">&#45; country_name : TEXT</text>
<polygon fill="none" stroke="#000000" points="8,-37 8,-85 96,-85 96,-37 8,-37"/>
</g>
<!-- CUSTOMER -->
<g id="node2" class="node">
<title>CUSTOMER</title>
<text text-anchor="start" x="154.0339" y="-109.4" font-family="Bitstream-Vera Sans" font-size="7.00" fill="#000000">CUSTOMER</text>
<polygon fill="none" stroke="#000000" points="131,-104 131,-106 217,-106 217,-104 131,-104"/>
<text text-anchor="start" x="132.9536" y="-96.4" font-family="Bitstream-Vera Sans" font-size="7.00" fill="#000000">&#45; generated_id : INTEGER</text>
<text text-anchor="start" x="133" y="-85.4" font-family="Bitstream-Vera Sans" font-size="7.00" fill="#000000">&#45; customer_id : INTEGER</text>
<text text-anchor="start" x="133" y="-74.4" font-family="Bitstream-Vera Sans" font-size="7.00" fill="#000000">&#45; last_name : TEXT</text>
<text text-anchor="start" x="133" y="-63.4" font-family="Bitstream-Vera Sans" font-size="7.00" fill="#000000">&#45; first_name : TEXT</text>
<text text-anchor="start" x="133" y="-52.4" font-family="Bitstream-Vera Sans" font-size="7.00" fill="#000000">&#45; gender : TEXT</text>
<text text-anchor="start" x="133" y="-41.4" font-family="Bitstream-Vera Sans" font-size="7.00" fill="#000000">&#45; DOB : DATE</text>
<text text-anchor="start" x="133" y="-30.4" font-family="Bitstream-Vera Sans" font-size="7.00" fill="#000000">&#45; city : TEXT</text>
<text text-anchor="start" x="133" y="-19.4" font-family="Bitstream-Vera Sans" font-size="7.00" fill="#000000">&#45; state : TEXT</text>
<text text-anchor="start" x="133" y="-8.4" font-family="Bitstream-Vera Sans" font-size="7.00" fill="#000000">&#45; country_id : INTEGER</text>
<polygon fill="none" stroke="#000000" points="130,-4 130,-118 218,-118 218,-4 130,-4"/>
</g>
<!-- INVOICE -->
<g id="node3" class="node">
<title>INVOICE</title>
<text text-anchor="start" x="286.1086" y="-87.4" font-family="Bitstream-Vera Sans" font-size="7.00" fill="#000000">INVOICE</text>
<polygon fill="none" stroke="#000000" points="254,-82 254,-84 347,-84 347,-82 254,-82"/>
<text text-anchor="start" x="256" y="-74.4" font-family="Bitstream-Vera Sans" font-size="7.00" fill="#000000">&#45; generated_id : INTEGER</text>
<text text-anchor="start" x="255.7639" y="-63.4" font-family="Bitstream-Vera Sans" font-size="7.00" fill="#000000">&#45; invoice_item_id : INTEGER</text>
<text text-anchor="start" x="256" y="-52.4" font-family="Bitstream-Vera Sans" font-size="7.00" fill="#000000">&#45; customer_id : INTEGER</text>
<text text-anchor="start" x="256" y="-41.4" font-family="Bitstream-Vera Sans" font-size="7.00" fill="#000000">&#45; signup_date : DATE</text>
<text text-anchor="start" x="256" y="-30.4" font-family="Bitstream-Vera Sans" font-size="7.00" fill="#000000">&#45; last_stream : DATE</text>
<polygon fill="none" stroke="#000000" points="252.5,-26 252.5,-96 347.5,-96 347.5,-26 252.5,-26"/>
</g>
<!-- INVOICE_ITEM -->
<g id="node4" class="node">
<title>INVOICE_ITEM</title>
<text text-anchor="start" x="404.8018" y="-76.4" font-family="Bitstream-Vera Sans" font-size="7.00" fill="#000000">INVOICE_ITEM</text>
<polygon fill="none" stroke="#000000" points="383,-71 383,-73 476,-73 476,-71 383,-71"/>
<text text-anchor="start" x="385" y="-63.4" font-family="Bitstream-Vera Sans" font-size="7.00" fill="#000000">&#45; generated_id : INTEGER</text>
<text text-anchor="start" x="384.7639" y="-52.4" font-family="Bitstream-Vera Sans" font-size="7.00" fill="#000000">&#45; invoice_item_id : INTEGER</text>
<text text-anchor="start" x="385" y="-41.4" font-family="Bitstream-Vera Sans" font-size="7.00" fill="#000000">&#45; invoice_item : TEXT</text>
<polygon fill="none" stroke="#000000" points="381.5,-37 381.5,-85 476.5,-85 476.5,-37 381.5,-37"/>
</g>
</g>
</svg>
